<svg width="246" height="192" viewBox="0 0 246 192" fill="none" xmlns="http://www.w3.org/2000/svg">
<g filter="url(#filter0_d_71_54)">
<path d="M199.879 184C202.999 184 205.743 181.935 206.606 178.936L237.428 71.842C238.716 67.3674 235.357 62.906 230.701 62.906H205.149H71.8055C68.6845 62.906 65.9405 64.9721 65.0781 67.9716L31.7148 184H199.879Z" fill="#01CDFF"/>
<path d="M7 0C3.13401 0 0 3.13401 0 7V177C0 180.866 3.13401 184 7 184H31.7148L65.0781 67.9716C65.9405 64.9721 68.6845 62.906 71.8055 62.906H205.149V31.3761C205.149 27.5101 202.015 24.3761 198.149 24.3761H108.723C107.055 24.3761 105.442 23.7806 104.174 22.6969L79.5881 1.67919C78.3203 0.595477 76.7074 0 75.0396 0H7Z" fill="#0192FD"/>
</g>
<defs>
<filter id="filter0_d_71_54" x="0" y="0" width="245.706" height="192" filterUnits="userSpaceOnUse" color-interpolation-filters="sRGB">
<feFlood flood-opacity="0" result="BackgroundImageFix"/>
<feColorMatrix in="SourceAlpha" type="matrix" values="0 0 0 0 0 0 0 0 0 0 0 0 0 0 0 0 0 0 127 0" result="hardAlpha"/>
<feOffset dx="4" dy="4"/>
<feGaussianBlur stdDeviation="2"/>
<feComposite in2="hardAlpha" operator="out"/>
<feColorMatrix type="matrix" values="0 0 0 0 0 0 0 0 0 0 0 0 0 0 0 0 0 0 0.25 0"/>
<feBlend mode="normal" in2="BackgroundImageFix" result="effect1_dropShadow_71_54"/>
<feBlend mode="normal" in="SourceGraphic" in2="effect1_dropShadow_71_54" result="shape"/>
</filter>
</defs>
</svg>
